<svg width="68" height="67" viewBox="0 0 68 67" fill="none" xmlns="http://www.w3.org/2000/svg">
    <g filter="url(#filter0_b_31_1916)">
    <path fill-rule="evenodd" clip-rule="evenodd" d="M44.6039 24.8979L44.6079 24.8979C48.2605 24.8979 51.2214 27.7494 51.2214 31.2668L51.2214 35.8987C51.2214 39.4161 48.2605 42.2676 44.6079 42.2676L44.6039 42.2676C44.5794 45.5029 44.4073 47.2745 43.1992 48.4379C41.7904 49.7946 39.523 49.7946 34.9883 49.7946L30.1785 49.7946L30.1785 17.3712L34.9883 17.3712C39.523 17.3712 41.7904 17.3712 43.1992 18.7279C44.4073 19.8913 44.5793 21.6628 44.6039 24.8979ZM44.6079 28.3719C46.2682 28.3719 47.6141 29.668 47.6141 31.2668L47.6141 35.8987C47.6141 37.4975 46.2682 38.7937 44.6079 38.7937L44.6079 28.3719Z" fill="url(#paint0_linear_31_1916)"/>
    </g>
    <g filter="url(#filter1_b_31_1916)">
    <path d="M30.1424 17.3712C33.1468 17.3712 34.6489 17.3712 35.7554 18.0416C36.3941 18.4286 36.9297 18.9642 37.3166 19.6028C37.9871 20.7093 37.9871 22.2115 37.9871 25.2158L37.9871 41.9499C37.9871 44.9543 37.9871 46.4564 37.3166 47.5629C36.9297 48.2016 36.3941 48.7372 35.7554 49.1241C34.6489 49.7946 33.1468 49.7946 30.1424 49.7946C25.636 49.7946 23.3827 49.7946 21.7229 48.7889C20.765 48.2085 19.9616 47.4051 19.3812 46.4471C18.3755 44.7874 18.3755 42.5341 18.3755 38.0276L18.3755 29.1381C18.3755 24.6316 18.3755 22.3784 19.3812 20.7186C19.9616 19.7607 20.765 18.9573 21.7229 18.3769C23.3827 17.3712 25.636 17.3712 30.1424 17.3712Z" fill="#F8B77B" fill-opacity="0.6"/>
    <path d="M30.1424 17.4825C31.6467 17.4825 32.7672 17.4826 33.6502 17.5658C34.5315 17.6488 35.1648 17.8139 35.6978 18.1368C36.3211 18.5145 36.8438 19.0372 37.2215 19.6605C37.5444 20.1934 37.7094 20.8267 37.7925 21.7081C37.8757 22.591 37.8758 23.7115 37.8758 25.2158L37.8758 41.9499C37.8758 43.4542 37.8757 44.5747 37.7925 45.4577C37.7094 46.339 37.5444 46.9723 37.2215 47.5053C36.8438 48.1286 36.3211 48.6513 35.6978 49.029C35.1648 49.3519 34.5315 49.5169 33.6502 49.6C32.7672 49.6832 31.6467 49.6833 30.1424 49.6833C27.8871 49.6833 26.2033 49.6832 24.8756 49.5581C23.5496 49.4331 22.5902 49.1843 21.7806 48.6937C20.838 48.1226 20.0475 47.3321 19.4763 46.3895C18.9858 45.5799 18.7369 44.6205 18.612 43.2945C18.4869 41.9668 18.4868 40.283 18.4868 38.0276L18.4868 29.1381C18.4868 26.8827 18.4869 25.199 18.612 23.8713C18.7369 22.5453 18.9858 21.5859 19.4764 20.7763C20.0475 19.8337 20.838 19.0431 21.7806 18.472C22.5902 17.9815 23.5496 17.7326 24.8756 17.6077C26.2033 17.4826 27.8871 17.4825 30.1424 17.4825Z" stroke="url(#paint1_linear_31_1916)" stroke-width="0.222512"/>
    </g>
    <path d="M24.0735 35.136L30.0072 33.4356L34.3901 35.136L29.2318 40.2942L24.0735 35.136Z" fill="#E77D27"/>
    <path d="M24.072 35.1345C22.6476 33.7101 22.6476 31.4006 24.072 29.9762C25.4964 28.5518 27.8058 28.5518 29.2302 29.9762L31.8109 32.5568C33.2353 33.9813 33.2353 36.2907 31.8109 37.7151C30.3865 39.1395 28.077 39.1395 26.6526 37.7151L24.072 35.1345Z" fill="#E77D27"/>
    <path d="M29.2302 29.9762C30.6547 28.5518 32.9641 28.5518 34.3885 29.9762C35.8129 31.4006 35.8129 33.71 34.3885 35.1345L31.959 37.564C30.5346 38.9884 28.2251 38.9884 26.8007 37.564C25.3763 36.1396 25.3763 33.8301 26.8007 32.4057L29.2302 29.9762Z" fill="#E77D27"/>
    <defs>
    <filter id="filter0_b_31_1916" x="25.5466" y="12.7393" width="30.3068" height="41.6872" filterUnits="userSpaceOnUse" color-interpolation-filters="sRGB">
    <feFlood flood-opacity="0" result="BackgroundImageFix"/>
    <feGaussianBlur in="BackgroundImageFix" stdDeviation="2.31595"/>
    <feComposite in2="SourceAlpha" operator="in" result="effect1_backgroundBlur_31_1916"/>
    <feBlend mode="normal" in="SourceGraphic" in2="effect1_backgroundBlur_31_1916" result="shape"/>
    </filter>
    <filter id="filter1_b_31_1916" x="16.6138" y="15.6096" width="23.1349" height="35.9466" filterUnits="userSpaceOnUse" color-interpolation-filters="sRGB">
    <feFlood flood-opacity="0" result="BackgroundImageFix"/>
    <feGaussianBlur in="BackgroundImageFix" stdDeviation="0.88082"/>
    <feComposite in2="SourceAlpha" operator="in" result="effect1_backgroundBlur_31_1916"/>
    <feBlend mode="normal" in="SourceGraphic" in2="effect1_backgroundBlur_31_1916" result="shape"/>
    </filter>
    <linearGradient id="paint0_linear_31_1916" x1="46.6183" y1="26.7241" x2="35.1086" y2="48.4457" gradientUnits="userSpaceOnUse">
    <stop stop-color="#FBA47F"/>
    <stop offset="1" stop-color="#DF6B00"/>
    </linearGradient>
    <linearGradient id="paint1_linear_31_1916" x1="36.2042" y1="15.0552" x2="7.54818" y2="48.6247" gradientUnits="userSpaceOnUse">
    <stop stop-color="white"/>
    <stop offset="1" stop-color="white" stop-opacity="0"/>
    </linearGradient>
    </defs>
    </svg>
    