<?xml version="1.0" encoding="UTF-8" standalone="no"?>
<!-- Created with Inkscape (http://www.inkscape.org/) -->

<svg
   width="16.000002"
   height="16.000063"
   viewBox="0 0 16.000003 16.000064"
   version="1.1"
   id="svg1"
   xml:space="preserve"
   xmlns="http://www.w3.org/2000/svg"
   xmlns:svg="http://www.w3.org/2000/svg"><defs
     id="defs1" /><g
     id="layer1"
     transform="translate(-1156.2447,-277.72551)"><path
       id="path59"
       style="fill:#afdab8;fill-opacity:1;stroke:none;stroke-width:11;stroke-linecap:round;stroke-linejoin:round;stroke-dasharray:none"
       d="m 1164.2446,277.72556 a 8.0000138,8.0000138 0 0 0 -3.8558,1.01369 c 0.035,2.1e-4 0.068,0.0181 0.092,0.0539 0.2883,0.48051 0.6407,1.13724 1.0571,1.93808 h 1.9381 c -0.3364,-0.64067 -0.6087,-1.12114 -0.8009,-1.4575 -0.032,-0.0641 0,-0.12812 0.064,-0.16016 l 1.2493,-0.51257 c 0.048,-0.016 0.096,-10e-6 0.1281,0.048 0.4004,0.65669 0.7689,1.36143 1.1213,2.08219 h 1.7137 c 0.4324,-0.68872 0.8009,-1.34537 1.1212,-2.00206 0,-0.008 0.01,-0.0138 0.012,-0.02 a 8.0000138,8.0000138 0 0 0 -3.8399,-0.98359 z m 5.1184,1.85317 c -0.1825,0.34967 -0.4028,0.7292 -0.6497,1.15252 h 1.7785 a 8.0000138,8.0000138 0 0 0 -1.1288,-1.15252 z m -10.2401,0.0132 a 8.0000138,8.0000138 0 0 0 -1.1075,1.13936 h 1.7444 c -0.2123,-0.41047 -0.4246,-0.78998 -0.6369,-1.13936 z m 11.7206,1.61407 v 3.28934 c 0,0.0641 -0.048,0.11202 -0.112,0.11202 h -1.3935 c -0.064,0 -0.1122,-0.048 -0.1122,-0.11202 v -2.40263 h -9.9625 v 2.40263 c 0,0.0641 -0.048,0.11202 -0.1121,0.11202 h -1.3935 c -0.064,0 -0.1121,-0.048 -0.1121,-0.11202 v -3.27001 a 8.0000138,8.0000138 0 0 0 -1.401,4.50027 8.0000138,8.0000138 0 0 0 8,8 8.0000138,8.0000138 0 0 0 8,-8 8.0000138,8.0000138 0 0 0 -1.4011,-4.5196 z m -10.7633,1.9919 h 8.3288 c 0.064,0 0.1121,0.0481 0.1121,0.11212 v 1.26535 c 0,0.016 0,0.032 -0.016,0.048 0,0.016 -0.016,0.0321 -0.016,0.0321 -0.8649,0.96102 -1.8419,1.8099 -2.9471,2.62677 h 5.7342 c 0.064,0 0.1121,0.048 0.1121,0.11212 v 1.21731 c 0,0.0641 -0.048,0.11202 -0.1121,0.11202 h -5.9263 v 2.30644 c 0,0.83288 -0.1122,1.34543 -0.3364,1.53763 -0.2242,0.1922 -0.8329,0.28833 -1.826,0.28833 -0.3203,0 -1.1371,-0.032 -2.4025,-0.08 -0.064,0 -0.1121,-0.0481 -0.1121,-0.0962 l -0.08,-1.23326 c 0,-0.0641 0.064,-0.12817 0.1281,-0.12817 1.1853,0.0481 1.938,0.0801 2.2744,0.0801 0.3043,0 0.4966,-0.0321 0.5447,-0.0801 0.048,-0.0481 0.08,-0.20815 0.08,-0.51247 v -2.0823 h -6.4068 c -0.064,0 -0.1121,-0.048 -0.1121,-0.11202 v -1.21731 c 0,-0.0641 0.048,-0.11212 0.1121,-0.11212 h 6.4068 v -1.15323 c 0,-0.0641 0.048,-0.11212 0.1121,-0.11212 h 0.9129 c 0.6728,-0.51254 1.2333,-0.9771 1.6978,-1.40956 h -6.2625 c -0.064,0 -0.1121,-0.048 -0.1121,-0.11202 v -1.18532 c 0,-0.0641 0.048,-0.11212 0.1121,-0.11212 z" /></g></svg>
